<svg width="16" height="18" viewBox="0 0 16 18" fill="currentColor" xmlns="http://www.w3.org/2000/svg">
<path fill-rule="evenodd" clip-rule="evenodd" d="M5 4.24999C5 4.4489 4.92099 4.63967 4.78033 4.78032C4.63968 4.92097 4.44892 4.99999 4.25 4.99999C4.05109 4.99999 3.86033 4.92097 3.71967 4.78032C3.57902 4.63967 3.5 4.4489 3.5 4.24999C3.5 4.05107 3.57902 3.86031 3.71967 3.71966C3.86033 3.579 4.05109 3.49999 4.25 3.49999C4.44892 3.49999 4.63968 3.579 4.78033 3.71966C4.92099 3.86031 5 4.05107 5 4.24999ZM5 6.37199C5.50042 6.19507 5.92217 5.84694 6.19073 5.38913C6.45929 4.93132 6.55735 4.39331 6.4676 3.87019C6.37785 3.34707 6.10605 2.87251 5.70025 2.53041C5.29445 2.1883 4.78077 2.00067 4.25 2.00067C3.71924 2.00067 3.20556 2.1883 2.79976 2.53041C2.39396 2.87251 2.12216 3.34707 2.03241 3.87019C1.94265 4.39331 2.04072 4.93132 2.30928 5.38913C2.57784 5.84694 2.99959 6.19507 3.5 6.37199V7.24999C3.5 7.84672 3.73706 8.41902 4.15901 8.84098C4.58097 9.26293 5.15327 9.49999 5.75 9.49999H7.25V11.628C6.74932 11.8049 6.3273 12.1532 6.05855 12.6112C5.78981 13.0692 5.69164 13.6075 5.78139 14.1309C5.87115 14.6543 6.14306 15.1291 6.54905 15.4714C6.95504 15.8136 7.46897 16.0014 8 16.0014C8.53104 16.0014 9.04497 15.8136 9.45096 15.4714C9.85695 15.1291 10.1289 14.6543 10.2186 14.1309C10.3084 13.6075 10.2102 13.0692 9.94146 12.6112C9.67271 12.1532 9.25069 11.8049 8.75 11.628V9.49999H10.25C10.8467 9.49999 11.419 9.26293 11.841 8.84098C12.263 8.41902 12.5 7.84672 12.5 7.24999V6.37199C13.0004 6.19507 13.4222 5.84694 13.6907 5.38913C13.9593 4.93132 14.0574 4.39331 13.9676 3.87019C13.8778 3.34707 13.6061 2.87251 13.2002 2.53041C12.7944 2.1883 12.2808 2.00067 11.75 2.00067C11.2192 2.00067 10.7056 2.1883 10.2998 2.53041C9.89396 2.87251 9.62216 3.34707 9.53241 3.87019C9.44265 4.39331 9.54072 4.93132 9.80928 5.38913C10.0778 5.84694 10.4996 6.19507 11 6.37199V7.24999C11 7.4489 10.921 7.63967 10.7803 7.78032C10.6397 7.92097 10.4489 7.99999 10.25 7.99999H5.75C5.55109 7.99999 5.36033 7.92097 5.21967 7.78032C5.07902 7.63967 5 7.4489 5 7.24999V6.37199ZM8.75 13.75C8.75 13.9489 8.67099 14.1397 8.53033 14.2803C8.38968 14.421 8.19892 14.5 8 14.5C7.80109 14.5 7.61033 14.421 7.46967 14.2803C7.32902 14.1397 7.25 13.9489 7.25 13.75C7.25 13.5511 7.32902 13.3603 7.46967 13.2197C7.61033 13.079 7.80109 13 8 13C8.19892 13 8.38968 13.079 8.53033 13.2197C8.67099 13.3603 8.75 13.5511 8.75 13.75ZM11.75 4.99999C11.9489 4.99999 12.1397 4.92097 12.2803 4.78032C12.421 4.63967 12.5 4.4489 12.5 4.24999C12.5 4.05107 12.421 3.86031 12.2803 3.71966C12.1397 3.579 11.9489 3.49999 11.75 3.49999C11.5511 3.49999 11.3603 3.579 11.2197 3.71966C11.079 3.86031 11 4.05107 11 4.24999C11 4.4489 11.079 4.63967 11.2197 4.78032C11.3603 4.92097 11.5511 4.99999 11.75 4.99999Z" fill="#586069"/>
</svg>
