<svg width="16" height="18" viewBox="0 0 16 18" fill="currentColor" xmlns="http://www.w3.org/2000/svg">
<path fill-rule="evenodd" clip-rule="evenodd" d="M8.00004 1.25C8.14006 1.24991 8.2773 1.28901 8.39624 1.36289C8.51518 1.43676 8.61106 1.54245 8.67304 1.668L10.555 5.483L14.765 6.095C14.9035 6.11511 15.0336 6.17355 15.1405 6.26372C15.2475 6.35388 15.3272 6.47218 15.3704 6.60523C15.4137 6.73829 15.4189 6.8808 15.3854 7.01665C15.352 7.1525 15.2812 7.27628 15.181 7.374L12.135 10.344L12.854 14.536C12.8777 14.6739 12.8624 14.8157 12.8097 14.9454C12.757 15.0751 12.6691 15.1874 12.5559 15.2697C12.4427 15.352 12.3087 15.401 12.1691 15.4111C12.0295 15.4212 11.8899 15.3921 11.766 15.327L8.00004 13.347L4.23404 15.327C4.11023 15.392 3.97071 15.4211 3.83123 15.411C3.69176 15.4009 3.55788 15.352 3.44472 15.2699C3.33157 15.1877 3.24363 15.0755 3.19086 14.946C3.13808 14.8165 3.12255 14.6749 3.14604 14.537L3.86604 10.343L0.818042 7.374C0.717608 7.27632 0.646541 7.15247 0.612894 7.01647C0.579246 6.88047 0.584364 6.73777 0.627666 6.60453C0.670969 6.47129 0.750725 6.35284 0.857898 6.26261C0.96507 6.17238 1.09537 6.11397 1.23404 6.094L5.44404 5.483L7.32704 1.668C7.38902 1.54245 7.48491 1.43676 7.60385 1.36289C7.72279 1.28901 7.86003 1.24991 8.00004 1.25ZM8.00004 3.695L6.61504 6.5C6.56126 6.6089 6.48183 6.70311 6.38359 6.77453C6.28534 6.84595 6.17122 6.89244 6.05104 6.91L2.95404 7.36L5.19404 9.544C5.28119 9.62886 5.3464 9.73365 5.38403 9.84933C5.42166 9.96501 5.43059 10.0881 5.41004 10.208L4.88204 13.292L7.65104 11.836C7.75867 11.7794 7.87845 11.7499 8.00004 11.7499C8.12164 11.7499 8.24141 11.7794 8.34904 11.836L11.119 13.292L10.589 10.208C10.5685 10.0881 10.5774 9.96501 10.615 9.84933C10.6527 9.73365 10.7179 9.62886 10.805 9.544L13.045 7.361L9.94904 6.911C9.82886 6.89344 9.71474 6.84695 9.6165 6.77553C9.51825 6.70411 9.43883 6.6099 9.38504 6.501L8.00004 3.694V3.695Z" fill="#586069"/>
</svg>
